<?xml version="1.0" encoding="utf-8"?>
<!-- Generator: Adobe Illustrator 27.5.0, SVG Export Plug-In . SVG Version: 6.00 Build 0)  -->
<svg version="1.1" xmlns="http://www.w3.org/2000/svg" xmlns:xlink="http://www.w3.org/1999/xlink" x="0px" y="0px"
	 viewBox="0 0 750 500.001" style="enable-background:new 0 0 750 500.001;" xml:space="preserve">
<g id="BACKGROUND">
	<rect style="fill:#F3E7D1;" width="749.999" height="500"/>
</g>
<g id="OBJECTS">
	<g>
		<path style="fill:#FFCCB6;" d="M228.872,318.381c-17.173,5.023-49.564,54.17-48.939,72.9c0.624,18.73,31.472,50.12,31.472,50.12
			l9.735-6.415c0,0-13.125-35.624-12.077-45.614c1.047-9.988,20.735-17.445,24.971-28.06
			C238.273,350.697,247.565,312.91,228.872,318.381z"/>
		<g>
			<path style="fill:#B2BC4B;" d="M303.402,451.845h-99.894c0,0,7.937-95.127,26.463-133.597c0,0,33.471-10.614,67.811,5.618
				L303.402,451.845z"/>
			<g>
				<path style="fill:#899929;" d="M250.871,359.494c0,6.143-4.981,11.123-11.125,11.123c-6.141,0-11.121-4.98-11.121-11.123
					s4.98-11.122,11.121-11.122C245.89,348.372,250.871,353.352,250.871,359.494z"/>
				<path style="fill:#899929;" d="M279.199,400.497c0,6.142-4.981,11.122-11.123,11.122c-6.143,0-11.122-4.98-11.122-11.122
					c0-6.143,4.979-11.125,11.122-11.125C274.218,389.372,279.199,394.354,279.199,400.497z"/>
				<path style="fill:#899929;" d="M247.524,431.596c0,6.142-4.98,11.12-11.123,11.12c-6.143,0-11.122-4.979-11.122-11.12
					c0-6.143,4.98-11.125,11.122-11.125C242.544,420.471,247.524,425.452,247.524,431.596z"/>
				<path style="fill:#899929;" d="M222.528,393.571c0-5.759-4.374-10.492-9.98-11.064c-1.313,7.485-2.47,14.897-3.485,21.935
					c0.756,0.162,1.539,0.252,2.342,0.252C217.548,404.693,222.528,399.713,222.528,393.571z"/>
				<path style="fill:#899929;" d="M280.783,359.494c0,6.143,4.98,11.123,11.121,11.123c3.036,0,5.783-1.218,7.791-3.189
					l-0.725-16.524c-1.922-1.582-4.383-2.531-7.066-2.531C285.764,348.372,280.783,353.352,280.783,359.494z"/>
				<path style="fill:#899929;" d="M256.954,323.588c0,6.142,4.979,11.122,11.122,11.122c6.142,0,11.123-4.98,11.123-11.122
					c0-2.495-0.833-4.791-2.219-6.645c-5.578-1.159-10.936-1.77-15.906-1.992C258.563,316.988,256.954,320.099,256.954,323.588z"/>
				<path style="fill:#899929;" d="M238.162,322.608c0-2.172-0.632-4.191-1.708-5.903c-4.107,0.792-6.482,1.543-6.482,1.543
					c-2.102,4.365-4.069,9.466-5.901,15.069c0.947,0.263,1.938,0.414,2.969,0.414C233.182,333.732,238.162,328.75,238.162,322.608z"
					/>
				<path style="fill:#899929;" d="M302.644,434.581c-5.963,0.204-10.739,5.09-10.739,11.104c0,2.278,0.689,4.396,1.864,6.16h9.634
					L302.644,434.581z"/>
			</g>
		</g>
		<g>
			<path style="fill:#FFCCB6;" d="M268.078,294.728l1.821,28.098c0,0-3.319,9.153-12.689,8.947
				c-9.371-0.207-11.776-9.781-11.776-9.781l3.535-24.616L268.078,294.728z"/>
			<path style="fill:#FF9676;" d="M268.078,294.728l0.282,4.379c-3.564,3.742-10.723,9.676-21.238,11.132l1.847-12.863
				L268.078,294.728z"/>
		</g>
		<g>
			<path style="fill:#FDC450;" d="M276.567,239.302c0,0,3.72-7.452,13.477-9.205c15.46-2.779,37.343,23.272,24.838,73.646
				c0,0-14.07,3.994-29.181,0c0,0,3.524-54.65,3.3-57.9c-0.346-5.019-8.686,0-8.686,0L276.567,239.302z"/>
			<g>
				<path style="fill:#FFAC3E;" d="M311.021,254.531c-1.634-6.461-4.163-13.124-9.546-17.373c-6.195-4.891-14.621-2.85-21.613-1.306
					c-0.59,0.13-0.341,1.035,0.248,0.904c7.96-1.759,16.299-3.449,22.724,2.842c4.778,4.681,6.637,12.04,8.036,18.348
					c1.591,7.156,2.032,14.545,1.96,21.858c-0.073,7.473-0.385,15.481-3,22.539c-0.21,0.567,0.695,0.809,0.903,0.249
					c2.778-7.499,2.967-15.98,3.044-23.897C313.857,270.569,313.017,262.416,311.021,254.531z"/>
				<path style="fill:#FFAC3E;" d="M297.895,242.4c-4.385-3.851-10.602-4.334-16.143-4.798c-0.604-0.05-0.598,0.886,0,0.936
					c6.558,0.552,12.837,1.391,17.501,6.51c4.238,4.653,5.692,11.529,6.729,17.53c2.279,13.204,1.212,27.181-0.108,40.435
					c-0.06,0.601,0.878,0.595,0.937,0c1.484-14.899,2.48-30.463-0.816-45.186C304.705,252.063,302.417,246.373,297.895,242.4z"/>
				<path style="fill:#FFAC3E;" d="M295.825,245.916c-3.212-4.203-8.466-4.953-13.393-5.324c-0.604-0.045-0.6,0.892,0,0.936
					c3.168,0.24,6.239,0.598,9.131,2.001c3.046,1.476,4.908,4.613,6.167,7.609c2.293,5.455,2.842,11.775,3.245,17.607
					c0.805,11.592-0.396,23.214-0.397,34.811c0,0.603,0.937,0.603,0.937,0c0.001-13.931,1.558-27.877-0.299-41.756
					C300.476,256.263,299.284,250.445,295.825,245.916z"/>
				<path style="fill:#FFAC3E;" d="M290.628,247.457c-0.119-0.591-1.022-0.341-0.904,0.248c1.915,9.486,3.759,18.987,4.304,28.669
					c0.288,5.107,0.127,10.257-0.731,15.304c-0.657,3.845-1.339,7.558-0.72,11.458c0.096,0.596,0.999,0.343,0.906-0.248
					c-0.724-4.54,0.515-8.841,1.094-13.311c0.62-4.777,0.59-9.61,0.32-14.412C294.371,265.827,292.474,256.604,290.628,247.457z"/>
			</g>
			<path style="fill:#FF8B84;" d="M283.618,237.914c-0.766-0.612-1.747-1.025-2.746-1.304c2.346-3.404,7.102-10.583,6.045-11.374
				c-1.39-1.044-6.762-1.39-7.289,0c-0.527,1.387-0.874,8.161-0.874,8.161s-3.996-9.126-5.733-9.079
				c-1.736,0.047-3.815,4.331-3.122,5.578c0.432,0.779,4.129,3.903,6.839,6.137c-0.492-0.013-0.798,0-0.798,0l0.627,1.881
				l7.745,7.929l1.235-0.725C285.547,245.118,286.223,240,283.618,237.914z"/>
			<path style="fill:#FDC450;" d="M228.926,267.655c0,0-5.558-13.068,2.408-23.837c7.967-10.768,31.093-15.633,45.829-7.121
				c16.387,9.463,24.182,47.128-9.085,61.777L228.926,267.655z"/>
			<g>
				<path style="fill:#FFAC3E;" d="M271.167,236.212c0.587,0.14,0.837-0.764,0.25-0.902c-9.229-2.175-18.528-0.606-27.021,3.484
					c-8.042,3.875-12.768,10.542-15.13,18.988c-0.162,0.582,0.741,0.829,0.904,0.247c2.236-7.996,6.453-13.917,13.794-17.96
					C252.173,235.546,262.074,234.068,271.167,236.212z"/>
				<path style="fill:#FFAC3E;" d="M253.552,243.881c6.165-4.016,13.684-6.178,21-6.43c0.603-0.021,0.603-0.956,0-0.935
					c-7.656,0.263-14.922,2.628-21.471,6.554c-5.968,3.576-9.951,9.622-13.034,15.687c-0.273,0.536,0.534,1.01,0.807,0.473
					C243.939,253.161,247.765,247.646,253.552,243.881z"/>
				<path style="fill:#FFAC3E;" d="M248.646,266.612c-0.194,0.574,0.711,0.817,0.903,0.251
					c4.383-12.895,14.845-22.217,26.957-27.844c0.547-0.254,0.072-1.062-0.473-0.81
					C263.694,243.943,253.107,253.491,248.646,266.612z"/>
				<path style="fill:#FFAC3E;" d="M267.365,259.284c4.606-5.926,10.408-11.968,11.28-19.761c0.065-0.599-0.872-0.594-0.937,0
					c-0.892,8.003-7.421,14.663-12.247,20.67c-4.961,6.175-11.271,11.026-18.498,14.251c-0.551,0.245-0.075,1.052,0.473,0.809
					C255.443,271.681,262.005,266.184,267.365,259.284z"/>
				<path style="fill:#FFAC3E;" d="M273.742,265.256c-3.592,6.677-9.126,11.976-15.067,16.559c-0.47,0.364-0.006,1.178,0.473,0.81
					c6.143-4.74,11.556-10.103,15.405-16.896c4.165-7.357,7.633-16.258,6.141-24.8c-0.104-0.592-1.007-0.341-0.904,0.249
					C281.257,249.568,277.65,257.996,273.742,265.256z"/>
				<path style="fill:#FFAC3E;" d="M284.4,244.603c-0.093-0.594-0.994-0.341-0.904,0.249c2.909,18.678-7.759,38.68-24.647,47.022
					c-0.541,0.268-0.067,1.075,0.474,0.81C276.616,284.14,287.372,263.683,284.4,244.603z"/>
				<path style="fill:#FFAC3E;" d="M288.264,254.082c-0.068-0.593-1.004-0.601-0.936,0c1.107,9.811-1.839,18.934-6.973,27.226
					c-4.429,7.152-11.218,12.093-18.609,15.846c-0.539,0.274-0.065,1.081,0.473,0.809c7.65-3.886,14.221-8.935,18.943-16.184
					C286.518,273.564,289.372,263.885,288.264,254.082z"/>
			</g>
		</g>
		<g>
			<path style="fill:#FFCCB6;" d="M270.989,280.369c-2.034,0-3.823,0.997-4.948,2.514c-11.683-6.952-7.32-21.762-7.32-21.762
				c-18.147,2.807-26.754-8.232-26.754-8.232c-3.366,6.174-10.289,40.601,5.8,49.955c12.648,6.244,30.312-4.37,30.312-4.37v-6.517
				c0.87,0.469,1.852,0.761,2.911,0.761c3.41,0,6.174-2.764,6.174-6.174C277.163,283.135,274.398,280.369,270.989,280.369z"/>
			<path style="fill:#FF9676;" d="M268.078,286.544c0,1.607,1.302,2.912,2.911,2.912c1.607,0,2.911-1.305,2.911-2.912
				c0-1.608-1.304-2.912-2.911-2.912C269.38,283.632,268.078,284.936,268.078,286.544z"/>
			<g>
				<g>
					<path style="fill:#FF9676;" d="M238.273,287.013c0.218,0,0.413-0.153,0.459-0.373c0.052-0.254-0.11-0.502-0.364-0.555
						c-1.834-0.381-3.168-1.141-3.854-2.198c-0.611-0.944-0.577-1.885-0.441-2.509c0.047-0.204,0.143-0.332,0.312-0.416
						c0.765-0.368,2.624,0.257,3.62,0.739c0.139,0.063,0.298,0.061,0.433-0.013c0.133-0.076,0.221-0.209,0.238-0.36l1.068-10.003
						c0.03-0.258-0.158-0.489-0.414-0.515c-0.264-0.021-0.489,0.157-0.518,0.415l-0.999,9.366c-0.955-0.39-2.764-0.99-3.836-0.472
						c-0.429,0.207-0.713,0.573-0.818,1.059c-0.246,1.128-0.044,2.271,0.571,3.217c0.825,1.271,2.363,2.174,4.449,2.607
						C238.21,287.008,238.242,287.013,238.273,287.013z"/>
				</g>
				<path style="opacity:0.4;fill:#FA6060;" d="M249.785,280.988c0,2.051,1.662,3.713,3.712,3.713c2.048,0,3.712-1.662,3.712-3.713
					c0-2.048-1.664-3.711-3.712-3.711C251.447,277.277,249.785,278.94,249.785,280.988z"/>
				<path style="opacity:0.4;fill:#FA6060;" d="M227.73,272.755c0.595-0.403,1.309-0.642,2.082-0.642
					c2.05,0,3.713,1.662,3.713,3.713s-1.663,3.712-3.713,3.712c-0.843,0-1.611-0.293-2.236-0.765
					C227.54,276.751,227.599,274.729,227.73,272.755z"/>
				<g>
					<path style="fill:#FA6060;" d="M234.362,293.874c2.239,0.701,4.956,1.494,7.189,0.304c2.197-1.17,3.271-3.232,4.282-5.42
						c0.253-0.546-0.555-1.021-0.809-0.473c-0.842,1.82-1.701,3.615-3.397,4.791c-2.084,1.444-4.837,0.577-7.018-0.104
						C234.032,292.789,233.789,293.696,234.362,293.874L234.362,293.874z"/>
				</g>
				<g>
					<g>
						<path d="M253.266,273.828c0.292-0.279-0.151-0.719-0.441-0.442c-0.323,0.307-0.664,0.52-1.066,0.677
							c-0.154-0.379-0.388-0.635-0.685-0.7c-0.78-0.177-1.708,0.985-2.071,2.595c-0.363,1.61-0.027,3.059,0.753,3.233
							c0.78,0.177,1.708-0.984,2.071-2.595c0.064-0.283,0.098-0.558,0.12-0.826c0.322-0.017,0.642-0.051,0.955-0.139
							c0.388-0.107,0.222-0.712-0.165-0.602c-0.257,0.071-0.515,0.102-0.774,0.119c-0.005-0.169-0.023-0.328-0.047-0.479
							C252.424,274.48,252.865,274.207,253.266,273.828z"/>
					</g>
					<path d="M230.856,269.68c-0.2-0.351,0.351-0.646,0.551-0.297c0.218,0.384,0.486,0.69,0.826,0.953
						c0.256-0.317,0.552-0.497,0.858-0.476c0.797,0.057,1.351,1.435,1.239,3.08c-0.113,1.647-0.85,2.938-1.648,2.885
						c-0.797-0.057-1.351-1.435-1.239-3.081c0.02-0.291,0.066-0.563,0.119-0.826c-0.301-0.108-0.597-0.232-0.873-0.406
						c-0.342-0.216-0.011-0.746,0.332-0.53c0.223,0.142,0.462,0.247,0.707,0.335c0.053-0.157,0.115-0.305,0.18-0.443
						C231.474,270.543,231.132,270.157,230.856,269.68z"/>
				</g>
			</g>
		</g>
		<g>
			<path style="fill:#FFCCB6;" d="M306.625,428.229c0,0,51.713-12.668,55.297-36.069c4.507-29.442-57.634-84.189-74.853-70.376
				c-14.208,24.705,41.419,53.706,41.043,63.483c-0.454,11.821-27.102,35.429-27.102,35.429s-9.324-11.02-20.226-7.64
				c-10.902,3.381-11.782,5.876-9.506,7.754c0,0-3.095,1.895-1.515,3.938c1.126,1.455,6.805,0,6.805,0s-5.412,4.84-2.667,6.716
				c2.746,1.879,10.067-5.634,13.168-4.133C290.168,428.835,297.908,438.517,306.625,428.229z"/>
			<g>
				<path style="fill:#FF9676;" d="M290.758,422.473c-0.175-0.095-4.277-2.296-7.126-2.035c-2.849,0.259-7.091,3.919-7.27,4.076
					c-0.129,0.111-0.144,0.308-0.03,0.439c0.063,0.07,0.149,0.107,0.235,0.107c0.073,0,0.147-0.025,0.205-0.076
					c0.044-0.036,4.269-3.684,6.917-3.924c2.666-0.232,6.731,1.94,6.772,1.961c0.152,0.083,0.343,0.025,0.422-0.125
					C290.967,422.744,290.911,422.555,290.758,422.473z"/>
				<path style="fill:#FF9676;" d="M285.279,416.372c0.166,0.05,0.338-0.05,0.386-0.214c0.048-0.165-0.047-0.337-0.213-0.387
					c-5.968-1.73-14.028,4.526-14.367,4.794c-0.137,0.106-0.159,0.304-0.054,0.439c0.061,0.078,0.153,0.119,0.246,0.119
					c0.069,0,0.136-0.023,0.193-0.067C271.549,420.993,279.621,414.729,285.279,416.372z"/>
			</g>
		</g>
	</g>
	<g>
		<g>
			<path style="fill:#6F3663;" d="M28.838,451.845c0,0,4.682-32.468,11.862-52.759h83.665l9.365,52.759H28.838z"/>
			<path style="fill:#4F2748;" d="M126.624,411.816l-2.259-12.73H40.7c-2.593,7.327-4.857,16.239-6.696,24.638
				C48.414,425.142,90.405,427.474,126.624,411.816z"/>
		</g>
		<g>
			<path style="fill:#D85E4E;" d="M142.159,370.364c27.472-0.055,54.05-26.563,54.05-26.563c9.597,1.486,19.891-4.811,21.857-7.459
				c1.963-2.649-0.487-5.066-4.008-2.558c-3.521,2.511-5.816,0.969-5.025-0.842c3.654-8.384,12.325-10.211,13.288-12.539
				c1.443-3.491-5.113-2.501-5.113-2.501s3.451-1.729,3.237-3.71c-0.217-1.982-7.417,0.387-12.846,4.103
				c-8.127,5.566-14.868,16.167-14.868,16.167s-52.445,20.446-67.549-13.761l-26.184,15.287
				C98.999,335.989,106.751,370.438,142.159,370.364z"/>
			<g>
				<path style="fill:#BC473B;" d="M204.931,327.431c-0.054,0-0.107-0.014-0.157-0.042c-0.148-0.086-0.201-0.275-0.115-0.426
					c0.041-0.07,4.142-7.111,13.142-9.438c0.17-0.037,0.337,0.06,0.38,0.225c0.044,0.167-0.056,0.336-0.225,0.38
					c-8.745,2.262-12.716,9.075-12.755,9.143C205.143,327.373,205.038,327.431,204.931,327.431z"/>
			</g>
			<path style="fill:#A6C0FD;" d="M106.589,285.764c8.336-1.034,14.822,13.674,25.348,44.112c0,0-8.471,16.646-30.124,19.134
				C101.813,349.01,86.078,288.308,106.589,285.764z"/>
		</g>
		<path style="fill:#A6C0FD;" d="M33.16,403.768c0,0,47.896,25.105,95.792,2.372c0,0-3.837-81.907-22.363-120.376
			c0,0-33.471-10.614-67.811,5.62C38.778,291.384,33.181,383.766,33.16,403.768z"/>
		<path style="fill:none;stroke:#4F41B0;stroke-width:0.5;stroke-linecap:round;stroke-linejoin:round;stroke-miterlimit:10;" d="
			M128.952,406.14c0,0-3.837-81.907-22.363-120.376"/>
		<g>
			<path style="fill:#D85E4E;" d="M73.941,264.744l-1.822,28.096c0,0,3.319,9.156,12.69,8.948c9.371-0.207,11.776-9.78,11.776-9.78
				l-3.535-24.617L73.941,264.744z"/>
			<path style="fill:#BC473B;" d="M73.941,264.744l-0.284,4.379c3.565,3.741,10.725,9.675,21.24,11.132l-1.847-12.864
				L73.941,264.744z"/>
		</g>
		<g>
			<path style="fill:#241A5B;" d="M110.343,232.822c0,0,8.804-7.11,3.653-20.206c-5.15-13.098-32.677-11.039-43.423,0
				c0,0-12.431-2.059-14.863,8.045c-2.433,10.102,2.058,15.34,2.058,15.34s-2.807,4.819-1.684,14.385
				c1.122,9.565,7.462,17.084,17.4,18.104C84.735,269.647,110.343,232.822,110.343,232.822z"/>
			<g>
				<path d="M109.127,213.218c-1.677,4.606-5.979,7.329-10.155,9.452c-2.508,1.275-5.13,2.302-7.851,3.018
					c-3.47,0.912-6.883,0.08-10.173-1.071c-0.571-0.2-0.815,0.705-0.248,0.902c6.571,2.301,11.813,1.214,18.013-1.684
					c4.684-2.189,9.477-5.31,11.318-10.369C110.237,212.899,109.332,212.654,109.127,213.218z"/>
				<path d="M79.428,220.878c-0.604,0.005-0.604,0.94,0,0.936c5.154-0.04,9.907-1.586,14.589-3.64
					c4.903-2.151,10.058-4.42,13.752-8.408c0.409-0.442-0.251-1.107-0.662-0.664c-3.216,3.474-7.428,5.378-11.631,7.371
					C90.374,218.895,85.141,220.833,79.428,220.878z"/>
				<path d="M72.778,215.329c8.702-5.853,19.653-9.413,30.162-7.491c0.591,0.108,0.843-0.793,0.248-0.903
					c-10.759-1.967-21.958,1.583-30.884,7.584C71.807,214.855,72.275,215.666,72.778,215.329z"/>
				<path d="M76.595,219.258c7.116-6.79,17.738-7.656,27.028-8.705c0.593-0.067,0.599-1.003,0-0.937
					c-9.571,1.08-20.369,1.992-27.69,8.978C75.495,219.012,76.158,219.673,76.595,219.258z"/>
				<path d="M79.162,230.031c1.123,5.302,0.704,10.511-1.166,15.592c-1.236,3.357-3.622,5.327-6.528,6.675
					c-0.969-1.365-0.215-4.608-0.004-6.057c0.38-2.618,1.861-4.407,2.832-6.717c0.656-1.561,0.176-2.804-0.395-4.354
					c-1.327-3.601,0.192-7.085,2.508-9.863c0.383-0.46-0.275-1.126-0.663-0.664c-1.465,1.758-2.857,3.806-3.154,6.138
					c-0.167,1.313-0.132,2.502,0.126,3.792c0.179,0.575,0.377,1.143,0.596,1.706c0.581,1.578-0.075,3.095-0.917,4.462
					c-1.353,2.194-1.833,4.79-2.092,7.312c-0.15,1.466-0.512,3.304,0.282,4.631c-0.878,0.358-1.787,0.683-2.73,0.967
					c-0.577,0.174-0.331,1.078,0.249,0.902c4.437-1.335,8.217-3.246,10.33-7.566c2.574-5.26,2.822-11.571,1.629-17.206
					C79.94,229.191,79.038,229.441,79.162,230.031z"/>
				<path d="M75.612,264.614c-15.065,0.291-20.55-18.474-11.394-28.885c0.129-0.148,0.201-0.393,0.073-0.569
					c-2.204-3.023-2.967-6.338-2.89-10.042c0.044-2.117,0.497-4.117,1.563-5.952c1.474-2.541,4.672-2.884,7.251-3.122
					c0.596-0.055,0.601-0.991,0-0.937c-2.621,0.242-5.765,0.586-7.499,2.853c-2.032,2.657-2.341,5.886-2.242,9.142
					c0.053,1.699,0.469,3.364,1.015,4.963c0.442,1.298,2.128,2.877,1.173,4.065c-1.519,1.891-2.487,4.162-3.149,6.477
					c-3.218,11.254,3.932,23.18,16.1,22.945C76.215,265.538,76.216,264.603,75.612,264.614z"/>
				<path d="M65.741,225.664c-0.396,1.33-0.28,2.734-0.063,4.078c0.451,2.78,3.18,4.997,1.84,8.117
					c-0.631,1.468-1.723,2.68-2.315,4.182c-0.828,2.103-1.262,4.115-1.287,6.367c-0.041,3.639,1.915,6.713,4.665,8.911
					c0.467,0.371,1.133-0.287,0.662-0.663c-3.039-2.428-4.422-5.398-4.378-9.314c0.026-2.307,0.957-4.681,2.06-6.657
					c0.593-1.061,1.503-2.09,1.805-3.294c0.662-2.645-1.017-4.609-1.91-7.031c-1.633-4.426,1.282-8.177,4.748-10.471
					c0.501-0.334,0.033-1.144-0.473-0.81C68.562,220.759,66.62,222.702,65.741,225.664z"/>
			</g>
		</g>
		<g>
			<path style="fill:#D85E4E;" d="M109.593,222.905c0,0-8.607,11.04-26.755,8.231c0,0,4.366,14.809-7.319,21.763
				c-1.124-1.518-2.913-2.514-4.946-2.514c-3.41,0-6.174,2.764-6.174,6.174c0,3.41,2.764,6.175,6.174,6.175
				c1.059,0,2.041-0.292,2.911-0.763v6.519c0,0,17.662,10.614,30.31,4.37C119.884,263.506,112.961,229.08,109.593,222.905z"/>
			<path style="fill:#BC473B;" d="M73.484,256.56c0,1.608-1.303,2.913-2.911,2.913c-1.608,0-2.912-1.305-2.912-2.913
				c0-1.607,1.303-2.911,2.912-2.911C72.181,253.648,73.484,254.952,73.484,256.56z"/>
			<g>
				<g>
					<path style="fill:#BC473B;" d="M103.288,257.027c-0.217,0-0.412-0.152-0.458-0.371c-0.052-0.254,0.109-0.502,0.364-0.555
						c1.834-0.381,3.167-1.141,3.852-2.199c0.611-0.943,0.577-1.885,0.441-2.508c-0.045-0.205-0.141-0.334-0.311-0.416
						c-0.764-0.369-2.625,0.255-3.621,0.736c-0.138,0.065-0.298,0.063-0.432-0.011c-0.132-0.075-0.222-0.208-0.238-0.359
						l-1.069-10.003c-0.027-0.258,0.159-0.489,0.416-0.517c0.263-0.019,0.488,0.158,0.516,0.416l1.001,9.368
						c0.952-0.391,2.763-0.99,3.836-0.474c0.428,0.209,0.712,0.575,0.817,1.06c0.247,1.127,0.044,2.27-0.571,3.217
						c-0.825,1.272-2.363,2.175-4.447,2.608C103.352,257.025,103.319,257.027,103.288,257.027z"/>
				</g>
				<path style="fill:#FFFFFF;" d="M94.079,258.922c-0.818,0.021,1.253,6.982,5.212,8.171c3.959,1.19,8.904-5.563,8.515-5.991
					C107.417,260.671,99.966,258.78,94.079,258.922z"/>
				<path style="opacity:0.4;fill:#FA6060;" d="M91.776,251.005c0,2.051-1.662,3.713-3.712,3.713c-2.05,0-3.711-1.662-3.711-3.713
					c0-2.049,1.662-3.712,3.711-3.712C90.114,247.293,91.776,248.956,91.776,251.005z"/>
				<path style="opacity:0.4;fill:#FA6060;" d="M113.83,242.769c-0.594-0.402-1.31-0.639-2.082-0.639
					c-2.049,0-3.712,1.662-3.712,3.713c0,2.049,1.663,3.712,3.712,3.712c0.843,0,1.612-0.292,2.235-0.766
					C114.021,246.768,113.963,244.745,113.83,242.769z"/>
				<g>
					<path d="M92.593,246.292c0,1.651-0.648,2.989-1.447,2.989c-0.8,0-1.447-1.338-1.447-2.989c0-1.65,0.647-2.987,1.447-2.987
						C91.945,243.305,92.593,244.642,92.593,246.292z"/>
					<path d="M109.483,242.129c0,1.651-0.647,2.989-1.447,2.989s-1.447-1.337-1.447-2.989c0-1.65,0.648-2.988,1.447-2.988
						S109.483,240.479,109.483,242.129z"/>
				</g>
			</g>
		</g>
		<g>
			<path style="fill:#D85E4E;" d="M48.013,349.01c0,0,25.519,34.43,57.145,26.974c35.752-8.428,45.117-80.229,45.117-80.229
				s12.099-2.854,12.102-8.552c0.006-11.116-9.389-12.373-9.389-12.373s1.708-18.922-1.138-17.499
				c-2.845,1.424-8.819,29.795-8.819,29.795s-24.006,50.46-34.996,50.46c-10.99,0-29.299-16.529-29.299-16.529L48.013,349.01z"/>
			<path style="fill:#A6C0FD;" d="M38.778,291.384c-13.463,8.014-7.266,41.334,6.958,63.525c0,0,27.35-8.338,39.563-31.765
				C85.3,323.145,52.304,283.332,38.778,291.384z"/>
			<g>
				<g>
					<path style="fill:#BC473B;" d="M147.436,280.565c-0.026,0-0.054-0.002-0.08-0.011c-0.167-0.044-0.266-0.215-0.222-0.38
						c0.068-0.256,1.718-6.285,5.9-5.656c0.17,0.025,0.289,0.183,0.264,0.355c-0.026,0.169-0.191,0.284-0.354,0.264
						c-3.648-0.523-5.19,5.142-5.206,5.199C147.7,280.474,147.574,280.565,147.436,280.565z"/>
				</g>
				<g>
					<path style="fill:#BC473B;" d="M152.627,283.112c-0.017,0-0.032-0.001-0.049-0.004c-0.17-0.027-0.287-0.186-0.26-0.356
						c0.027-0.168,0.672-4.14,2.94-5.589c0.842-0.54,1.796-0.663,2.833-0.366c0.165,0.045,0.262,0.22,0.214,0.385
						c-0.047,0.166-0.22,0.264-0.385,0.215c-0.873-0.247-1.632-0.154-2.325,0.293c-2.034,1.301-2.654,5.119-2.66,5.159
						C152.91,283.003,152.778,283.112,152.627,283.112z"/>
				</g>
			</g>
		</g>
		<path style="fill:none;stroke:#4F41B0;stroke-width:0.5;stroke-linecap:round;stroke-linejoin:round;stroke-miterlimit:10;" d="
			M38.627,341.419c2.033,4.729,4.429,9.308,7.109,13.49c0,0,27.35-8.338,39.563-31.765c0,0-32.996-39.813-46.521-31.761"/>
		<path style="fill:none;stroke:#BC473B;stroke-width:0.5;stroke-linecap:round;stroke-linejoin:round;stroke-miterlimit:10;" d="
			M111.015,373.94c0,0,20.922-9.044,30.437-42.164"/>
	</g>
	<g>
		<g>
			<path style="fill:#241A5B;" d="M626.617,230.516c0,0-6.167-5.5-5.87-13.773c0.346-9.598,19.246-22.927,47.623-7.096
				c0,0,10.599-3.331,13.524,6.281c3.179,10.439,3.675,36.221-14.114,46.575L626.617,230.516z"/>
			<g>
				<g>
					<path style="fill:#4F41B0;" d="M624.562,214.882c5.196,3.835,10.717,6.685,17.13,7.759c7.186,1.205,14.527-0.164,21.267-2.698
						c0.56-0.212,0.318-1.116-0.248-0.904c-6.685,2.513-13.651,3.686-20.769,2.699c-6.291-0.872-11.865-3.945-16.906-7.665
						C624.549,213.715,624.081,214.527,624.562,214.882L624.562,214.882z"/>
				</g>
				<g>
					<path style="fill:#4F41B0;" d="M629.057,209.524c10.993,6.502,23.354,9.518,35.802,5.578c0.575-0.18,0.329-1.084-0.248-0.901
						c-12.229,3.869-24.291,0.899-35.08-5.486C629.011,208.406,628.539,209.216,629.057,209.524L629.057,209.524z"/>
				</g>
				<g>
					<path style="fill:#4F41B0;" d="M637.355,206.065c9.08,5.455,19.838,7.245,30.269,5.753c0.599-0.086,0.344-0.988-0.248-0.904
						c-10.177,1.458-20.698-0.342-29.549-5.659C637.31,204.944,636.838,205.754,637.355,206.065L637.355,206.065z"/>
				</g>
				<g>
					<path style="fill:#4F41B0;" d="M648.419,205.72c6.087,3.166,12.628,4.164,19.429,4.211c0.602,0.005,0.602-0.932,0-0.935
						c-6.639-0.046-13.01-0.993-18.953-4.085C648.357,204.63,647.886,205.441,648.419,205.72L648.419,205.72z"/>
				</g>
				<g>
					<path style="fill:#4F41B0;" d="M658.389,223.814c0.158,8.95,4.405,18.128,12.334,22.707c0.524,0.301,0.995-0.506,0.474-0.809
						c-7.645-4.413-11.72-13.274-11.871-21.898C659.315,223.211,658.378,223.208,658.389,223.814L658.389,223.814z"/>
				</g>
				<g>
					<path style="fill:#4F41B0;" d="M671.666,211.353c6.796,5.959,7.996,14.044,7.308,22.645
						c-0.716,8.949-2.939,17.859-9.209,24.582c-0.412,0.44,0.249,1.104,0.661,0.663c6.502-6.967,8.626-16.004,9.484-25.245
						c0.818-8.806-0.676-17.252-7.584-23.308C671.876,210.292,671.211,210.953,671.666,211.353L671.666,211.353z"/>
				</g>
				<g>
					<path style="fill:#4F41B0;" d="M667.957,215.747c5.901,3.156,6.569,9.862,6.779,15.889c0.264,7.495-0.31,14.729-3.019,21.79
						c-0.217,0.564,0.689,0.807,0.901,0.248c3.033-7.9,3.42-16.062,2.946-24.426c-0.321-5.677-1.784-11.451-7.135-14.312
						C667.896,214.652,667.425,215.462,667.957,215.747L667.957,215.747z"/>
				</g>
				<g>
					<path style="fill:#4F41B0;" d="M665.27,220.859c7.71,8.308,5.985,21.901,3.855,32.047c-0.124,0.589,0.779,0.839,0.903,0.249
						c2.21-10.518,3.883-24.364-4.098-32.96C665.52,219.754,664.858,220.418,665.27,220.859L665.27,220.859z"/>
				</g>
				<g>
					<path style="fill:#4F41B0;" d="M661.737,223.877c2.427,3.158,4.449,6.456,5.828,10.206c1.414,3.843,1.61,8.001,2.425,11.983
						c0.12,0.59,1.022,0.34,0.901-0.247c-0.889-4.358-1.226-8.732-2.772-12.935c-1.272-3.462-3.34-6.573-5.571-9.481
						C662.184,222.932,661.371,223.399,661.737,223.877L661.737,223.877z"/>
				</g>
			</g>
		</g>
		<g>
			<path style="fill:#FFCCB6;" d="M563.659,336.96c0,0-14.264,2.464-25.634-3.581c-10.263-5.463-7.43-7.354-4.813-7.278
				c2.614,0.072,4.584,0.855,4.584,0.855c-2.965-1.591-5.15-4.162-4.371-5.147c0.778-0.982,5.24,1.156,5.24,1.156
				c-1.95-2.067-1.134-4.304,3.082-2.425c4.214,1.878,12.664,6.659,16.184,6.513c3.519-0.151,1.534-2.741-2.951-3.871
				c-4.489-1.135-4.912-3.909,4.857-3.128c9.771,0.784,11.714,11.887,11.714,11.887l7.51,13.64l-11.689,7.012L563.659,336.96z"/>
			<g>
				<path style="fill:#FA6060;" d="M536.69,326.487c0.102-0.142,0.297-0.172,0.434-0.071c4.925,3.561,12.469,4.597,12.542,4.603
					c0.171,0.024,0.288,0.181,0.269,0.351c-0.023,0.162-0.162,0.274-0.32,0.271c-0.008,0-0.02,0-0.031-0.002
					c-0.315-0.042-7.771-1.061-12.824-4.716C536.62,326.821,536.586,326.626,536.69,326.487z"/>
				<path style="fill:#FA6060;" d="M537.546,322.506c0.097-0.144,0.29-0.186,0.434-0.092c4.573,3.01,12.29,5.105,12.369,5.123
					c0.167,0.048,0.264,0.217,0.22,0.382c-0.038,0.143-0.167,0.235-0.31,0.232c-0.021,0-0.044-0.003-0.072-0.01
					c-0.079-0.021-7.893-2.138-12.55-5.204C537.493,322.843,537.453,322.65,537.546,322.506z"/>
			</g>
			<path style="fill:#D32F53;" d="M633.321,287.311c-5.647-11.186-34.396,73.382-37.018,69.826
				c-1.896-2.568-15.271-13.919-21.926-23.697c-3.361,3.268-7.038,6.202-10.848,8.977c3.098,19.491,12.559,60.288,37.844,64.142
				C634.712,411.639,645.807,312.043,633.321,287.311z"/>
			<g>
				<path style="fill:#AA1737;" d="M566.834,348.226c3.7-1.541,7.042-4.477,9.443-7.649c0.364-0.483-0.45-0.948-0.808-0.473
					c-2.246,2.965-5.429,5.779-8.885,7.219C566.038,347.552,566.278,348.459,566.834,348.226L566.834,348.226z"/>
			</g>
		</g>
		<g>
			<path style="fill:#4F41B0;" d="M709,451.845c0,0-4.683-32.468-11.862-52.759h-83.665l-9.366,52.759H709z"/>
			<path style="fill:#241A5B;" d="M611.215,411.816l2.258-12.73h83.665c2.593,7.327,4.857,16.239,6.697,24.638
				C689.424,425.143,647.434,427.473,611.215,411.816z"/>
		</g>
		<path style="fill:#D32F53;" d="M704.677,403.768c0,0-47.893,25.105-95.79,2.372c0,0,3.837-81.907,22.361-120.376
			c0,0,33.47-10.614,67.811,5.62C699.06,291.384,704.658,383.766,704.677,403.768z"/>
		<path style="fill:none;stroke:#AA1737;stroke-width:0.5;stroke-linecap:round;stroke-linejoin:round;stroke-miterlimit:10;" d="
			M704.677,403.768c0,0-47.893,25.105-95.79,2.372c0,0,3.837-81.907,22.361-120.376"/>
		<g>
			<path style="fill:#FFCCB6;" d="M670.717,280.523l-2.28-20.882l-18.974,3.485l-1.962,19.842l3.82,3.391l2.353,7.529
				c0.005,0,0.009,0,0.015,0.003l3.095-5.421L670.717,280.523z"/>
			<path style="fill:#FA6060;" d="M668.437,259.642l0.479,4.36c-3.398,3.895-10.291,10.14-20.732,12.057l1.28-12.932
				L668.437,259.642z"/>
		</g>
		<g>
			<path style="fill:#FFCCB6;" d="M676.267,249.14c-0.427-3.383-3.517-5.779-6.899-5.351c-2.018,0.253-3.669,1.465-4.595,3.111
				c-12.46-5.433-9.985-20.672-9.985-20.672c-17.654,5.058-27.576-4.814-27.576-4.814c-2.567,6.547-5.123,41.57,12.012,48.836
				c13.332,4.608,29.523-8.137,29.523-8.137l-0.814-6.462c0.922,0.355,1.933,0.521,2.982,0.389
				C674.297,255.613,676.694,252.523,676.267,249.14z"/>
			<path style="fill:#FF9676;" d="M667.252,250.278c0.202,1.594,1.661,2.729,3.254,2.524c1.594-0.201,2.728-1.659,2.523-3.253
				c-0.2-1.595-1.658-2.727-3.254-2.523C668.183,247.228,667.05,248.682,667.252,250.278z"/>
			<g>
				<g>
					<path style="fill:#FF9676;" d="M637.741,254.477c0.215-0.025,0.39-0.201,0.41-0.429c0.021-0.255-0.175-0.482-0.432-0.504
						c-1.869-0.149-3.285-0.734-4.096-1.698c-0.726-0.856-0.811-1.797-0.754-2.432c0.02-0.209,0.098-0.347,0.257-0.452
						c0.712-0.463,2.636-0.076,3.684,0.277c0.146,0.047,0.304,0.026,0.428-0.065c0.122-0.092,0.193-0.233,0.19-0.386l-0.188-10.059
						c-0.009-0.259-0.221-0.462-0.479-0.46c-0.262,0.014-0.466,0.22-0.459,0.479l0.177,9.418c-0.991-0.27-2.865-0.635-3.862,0.013
						c-0.398,0.261-0.634,0.659-0.678,1.152c-0.104,1.149,0.239,2.257,0.97,3.122c0.975,1.157,2.614,1.86,4.738,2.024
						C637.678,254.48,637.71,254.48,637.741,254.477z"/>
				</g>
				<path style="opacity:0.4;fill:#FA6060;" d="M648.408,247.061c0.257,2.032,2.115,3.474,4.146,3.216
					c2.037-0.257,3.477-2.114,3.218-4.146c-0.255-2.036-2.111-3.475-4.146-3.219C649.593,243.168,648.151,245.025,648.408,247.061z"
					/>
				<path style="opacity:0.4;fill:#FA6060;" d="M625.495,241.65c0.539-0.474,1.221-0.798,1.985-0.895
					c2.035-0.258,3.892,1.187,4.148,3.219c0.257,2.032-1.181,3.889-3.218,4.148c-0.836,0.104-1.636-0.088-2.312-0.481
					C625.807,245.642,625.611,243.63,625.495,241.65z"/>
				<g>
					<path d="M647.009,242.486c0.206,1.637,1.017,2.883,1.81,2.785c0.791-0.099,1.268-1.51,1.061-3.148
						c-0.206-1.635-1.019-2.881-1.81-2.782C647.275,239.442,646.8,240.847,647.009,242.486z"/>
					<path d="M629.729,240.472c0.208,1.637,1.017,2.884,1.81,2.785c0.794-0.102,1.27-1.507,1.061-3.148
						c-0.204-1.635-1.016-2.885-1.81-2.782C629.998,237.425,629.522,238.836,629.729,240.472z"/>
				</g>
				<g style="opacity:0.4;">
					<path style="fill:#FA6060;" d="M637.293,263.819c5.102,0.058,10.578-2.165,11.808-7.573c0.179-0.786-1.04-1.063-1.217-0.28
						c-1.109,4.878-6.123,6.657-10.646,6.604C636.432,262.563,636.488,263.81,637.293,263.819L637.293,263.819z"/>
				</g>
			</g>
		</g>
		<g>
			<g>
				<path style="fill:#AA1737;" d="M651.321,311.167c0,1.292-0.701,2.339-1.568,2.339s-1.57-1.047-1.57-2.339
					c0-1.29,0.703-2.337,1.57-2.337S651.321,309.877,651.321,311.167z"/>
				<path style="fill:#AA1737;" d="M650.014,338.55c0,1.29-0.703,2.338-1.57,2.338c-0.867,0-1.567-1.048-1.567-2.338
					c0-1.291,0.7-2.337,1.567-2.337C649.311,336.213,650.014,337.259,650.014,338.55z"/>
				<path style="fill:#AA1737;" d="M648.705,365.931c0,1.291-0.703,2.338-1.57,2.338c-0.865,0-1.568-1.047-1.568-2.338
					c0-1.291,0.703-2.336,1.568-2.336C648.002,363.595,648.705,364.64,648.705,365.931z"/>
				<path style="fill:#AA1737;" d="M647.396,393.313c0,1.29-0.701,2.338-1.568,2.338c-0.867,0-1.569-1.048-1.569-2.338
					c0-1.292,0.702-2.336,1.569-2.336C646.694,390.977,647.396,392.021,647.396,393.313z"/>
			</g>
			<g>
				<path style="fill:#D32F53;" d="M658.549,300.749l-1.766-12.278c0.667-1.043,14.71-10.2,14.71-10.2l4.822,5.795L658.549,300.749z
					"/>
				<polygon style="fill:#D32F53;" points="647.055,278.271 651.321,286.359 649.119,299.963 642.892,283.365 				"/>
			</g>
			
				<polyline style="fill:none;stroke:#AA1737;stroke-width:0.5;stroke-linecap:round;stroke-linejoin:round;stroke-miterlimit:10;" points="
				656.783,288.471 658.549,300.749 676.315,284.065 			"/>
			
				<polyline style="fill:none;stroke:#AA1737;stroke-width:0.5;stroke-linecap:round;stroke-linejoin:round;stroke-miterlimit:10;" points="
				651.321,286.359 649.119,299.963 642.892,283.365 			"/>
		</g>
		<g>
			<path style="fill:#FFCCB6;" d="M681.264,381.038c-4.66,3.049-34.136-8.022-34.136-8.022S630.357,353.788,629.6,356.5
				c-0.758,2.709,8.426,11.182,5.698,12.2c-2.731,1.016-17.287-0.677-22.717-1.695c-5.435-1.017-4.401,3.391,0,6.441
				c0,0-5.812-1.638-5.812,0.672c0,3.725,5.812,4.752,5.812,4.752s-4.063,0.967-2.133,3.049c1.929,2.082,16.464,6.439,34.039,2.035
				c0,0,35.315,29.49,57.628,24.066L681.264,381.038z"/>
			<g>
				<path style="fill:#FA6060;" d="M625.224,374.826c-7.217,0.212-12.439-1.759-12.489-1.779c-0.219-0.089-0.47,0.023-0.554,0.243
					c-0.086,0.222,0.025,0.47,0.244,0.554c0.204,0.081,4.883,1.854,11.663,1.854c0.381,0,0.768-0.005,1.163-0.016
					c0.236-0.007,0.421-0.206,0.413-0.441C625.66,375.004,625.46,374.805,625.224,374.826z"/>
				<path style="fill:#FA6060;" d="M624.759,380.079c-6.621,0.584-11.966-1.586-12.016-1.605c-0.217-0.092-0.468,0.013-0.56,0.232
					c-0.09,0.219,0.015,0.47,0.234,0.559c0.197,0.081,4.371,1.773,10.024,1.773c0.771,0,1.57-0.033,2.389-0.101
					c0.238-0.021,0.411-0.232,0.39-0.466C625.201,380.234,624.99,380.062,624.759,380.079z"/>
			</g>
			<path style="fill:#D32F53;" d="M685.363,287.842c-11.418,2.839,5.376,81.809,0,85.326c-3.952,2.585-26.173-1.378-37.66-3.658
				c-0.188,6.686-0.767,13.41-2.149,19.941c12.734,9.305,40.3,27.081,59.515,22.412
				C730.799,405.609,726.697,277.559,685.363,287.842z"/>
			<g>
				<path style="fill:#AA1737;" d="M652.513,371.114c0.27,6.94-0.518,13.768-1.539,20.623c-0.088,0.587,0.814,0.844,0.903,0.248
					c1.031-6.935,1.844-13.85,1.572-20.871C653.426,370.511,652.489,370.511,652.513,371.114L652.513,371.114z"/>
			</g>
			<path style="fill:none;stroke:#AA1737;stroke-width:0.5;stroke-linecap:round;stroke-linejoin:round;stroke-miterlimit:10;" d="
				M685.363,287.842c-11.418,2.839,5.376,81.809,0,85.326c-3.952,2.585-26.173-1.378-37.66-3.658
				c-0.188,6.686-0.767,13.41-2.149,19.941c12.734,9.305,40.3,27.081,59.515,22.412"/>
		</g>
	</g>
	<g>
		<g>
			<path style="fill:#6F3663;" d="M463.416,266.016c0,0,11.999-21.207-4.582-29.515c-16.584-8.311-37.934,6.1-37.934,6.1
				s-10.393-3.731-15.583,2.351c-9.741,11.417,0.591,48.064-4.157,51.92c-4.746,3.857-10.53,12.383-0.741,23.103
				c9.789,10.717,52.512,14.276,62.601-1.594c7.829-12.32-1.61-22.498-7.531-23.591L463.416,266.016z"/>
			<g>
				<path style="fill:#87447A;" d="M460.625,243.669c0.308,0.369,0.606,0.742,0.876,1.137c3.441,5.056,0.576,10.861-2.135,15.474
					c-0.305,0.522,0.505,0.992,0.81,0.473c2.58-4.397,4.866-9.016,3.232-14.167c-1.268-4-5.251-7.007-9.002-8.499
					c-11.888-4.734-23.608,1.531-33.814,7.38c-0.522,0.301-0.053,1.108,0.474,0.807c8.545-4.896,17.86-10.107,28.008-8.684
					c-7.03,3.456-14.313,6.272-21.959,8.031c-0.587,0.136-0.337,1.037,0.25,0.904c7.996-1.842,15.595-4.829,22.926-8.485
					c0.107-0.055,0.166-0.134,0.199-0.217c1.854,0.379,3.669,1.05,5.347,1.972c-2.909,5.136-9.288,6.975-14.62,8.524
					c-5.981,1.735-12.332,1.402-18.429,0.593c-0.601-0.081-0.592,0.857,0,0.935c7.065,0.94,13.855,0.864,20.708-1.228
					c4.979-1.521,10.478-3.621,13.159-8.369c1.219,0.756,2.33,1.665,3.311,2.696c-3.117,5.463-7.101,8.556-13.081,10.73
					c-7.36,2.678-13.901,2.155-21.207-0.363c-0.572-0.196-0.816,0.708-0.249,0.904c3.612,1.243,7.222,2.221,11.051,2.429
					c3.67,0.201,7.224-0.895,10.654-2.065C453.281,252.483,457.428,249.16,460.625,243.669z"/>
				<path style="fill:#87447A;" d="M426.227,257.853c4.644,9.731,3.822,21.55-5.096,28.379c-0.474,0.364-0.008,1.179,0.472,0.81
					c4.043-3.097,6.613-6.628,7.754-11.628c1.404-6.146,0.364-12.407-2.319-18.037C426.776,256.833,425.968,257.309,426.227,257.853
					z"/>
				<path style="fill:#87447A;" d="M420.287,284.714c4.477-9.277,5.121-21.451,1.397-31.07c-0.217-0.556-1.122-0.314-0.905,0.248
					c3.627,9.368,3.065,21.3-1.303,30.35C419.218,284.782,420.025,285.26,420.287,284.714z"/>
				<path style="fill:#87447A;" d="M453.543,297.118c-0.499-0.346-0.967,0.467-0.474,0.81c4.302,2.981,6.508,7.271,6.69,12.475
					c0.215,6.064-3.073,9.906-7.628,13.354c-0.476,0.361-0.008,1.174,0.474,0.811c4.724-3.579,7.759-7.18,8.083-13.289
					C460.998,305.48,458.247,300.378,453.543,297.118z"/>
				<path style="fill:#87447A;" d="M450.171,299.576c-0.311-0.518-1.124-0.047-0.81,0.473c4.613,7.624,3.591,18.05-3.15,24.093
					c-0.451,0.404,0.214,1.065,0.662,0.664C453.915,318.491,454.988,307.542,450.171,299.576z"/>
				<path style="fill:#87447A;" d="M445.073,298.639c-0.251-0.549-1.057-0.071-0.809,0.473c2.855,6.291,2.162,13.267-2.946,18.162
					c-0.439,0.42,0.227,1.082,0.663,0.663C447.4,312.737,448.102,305.311,445.073,298.639z"/>
				<path style="fill:#87447A;" d="M405.047,259.434c1.353-7.183,4.228-14.44,12.565-14.513c0.602-0.005,0.602-0.944,0-0.938
					c-5.999,0.052-9.543,3.365-11.69,8.772c-3.276,8.256-3.294,17.864-2.409,26.556c0.441,4.33,1.749,8.554,1.963,12.903
					c0.226,4.543-3.677,7.927-5.313,11.848c-2.74,6.581-0.618,12.644,4.214,17.517c0.428,0.428,1.089-0.233,0.663-0.661
					c-5.843-5.89-6.559-12.702-2.203-19.75c1.305-2.111,3.087-4.453,3.42-6.991c0.461-3.522-0.512-7.099-1.13-10.55
					C403.693,275.642,403.54,267.422,405.047,259.434z"/>
				<path style="fill:#87447A;" d="M418.569,248.439c0.573-0.182,0.326-1.086-0.248-0.901c-5.26,1.685-7.043,5.452-7.909,10.633
					c-1.398,8.365-0.451,17.287,0.585,25.642c0.52,4.186,2.534,9.455,0.511,13.365c-1.597,3.086-3.108,5.646-3.521,9.19
					c-0.771,6.612,0.204,13.301,4.717,18.438c0.397,0.454,1.059-0.212,0.663-0.664c-4.709-5.355-5.475-12.796-4.128-19.578
					c0.592-2.988,2.485-5.082,3.529-7.807c1.078-2.818,0.257-5.747-0.221-8.621c-1.246-7.505-1.869-15.228-1.78-22.835
					C410.843,258.667,411.258,250.786,418.569,248.439z"/>
				<path style="fill:#87447A;" d="M424.823,322.718c-4.651-2.526-6.817-6.873-7.978-11.854c-1.558-6.7,0.517-13.198,1.856-19.708
					c0.39-1.886,0.339-3.739-0.015-5.622c-0.648-3.475-1.307-6.83-1.459-10.383c-0.265-6.245,0.807-12.487,2.396-18.506
					c0.156-0.583-0.747-0.831-0.902-0.248c-1.625,6.157-2.556,12.378-2.43,18.754c0.055,2.793,0.437,5.567,0.956,8.306
					c0.352,1.845,0.827,3.563,0.802,5.465c-0.027,2.133-0.764,4.366-1.294,6.417c-2.477,9.583-2.284,22.822,7.594,28.189
					C424.88,323.815,425.354,323.005,424.823,322.718z"/>
			</g>
		</g>
		<g>
			<path style="fill:#D85E4E;" d="M470.022,325.475c6.546,8.446,4.139,53.099,12.764,57.135c8.623,4.04,50.045-0.575,50.045-0.575
				s9.244-6.451,16.686-0.074c7.442,6.378,5.178,8.035,1.208,5.65c-3.965-2.386-7.202-1.967-4.826,0.635
				c2.379,2.6,11.724,5.222,16.025,6.887c4.307,1.663,3.297,3.82,0.457,3.893c0,0,4.658,1.656,4.513,2.9
				c-0.148,1.247-3.513,1.511-6.733,0.53c0,0,1.943,0.847,3.84,2.648c1.898,1.802,2.555,5.146-8.557,1.717
				c-12.302-3.799-20.601-15.608-20.601-15.608s-55.04,27.332-73.528,12.542c-18.486-14.789-23.538-31.703-24.761-51.553
				C435.267,331.246,456.801,308.42,470.022,325.475z"/>
			<g>
				<path style="fill:#BC473B;" d="M561.277,402.911c0.027-0.171-0.087-0.332-0.259-0.357c-5.997-0.98-12.046-5.603-12.105-5.647
					c-0.14-0.104-0.333-0.078-0.44,0.055c-0.097,0.133-0.082,0.311,0.034,0.42c0.006,0.005,0.015,0.015,0.022,0.019
					c0.253,0.196,6.232,4.763,12.387,5.772C561.086,403.199,561.247,403.081,561.277,402.911z"/>
				<path style="fill:#BC473B;" d="M563.495,399.496c0.032-0.17-0.075-0.336-0.242-0.369c-5.358-1.124-12.283-5.119-12.353-5.161
					c-0.149-0.086-0.341-0.036-0.425,0.113c-0.078,0.127-0.049,0.284,0.053,0.383c0.017,0.017,0.035,0.032,0.059,0.045
					c0.071,0.041,7.08,4.087,12.538,5.23C563.293,399.772,563.458,399.665,563.495,399.496z"/>
			</g>
			<g>
				<path style="fill:#FDC450;" d="M478.315,357.968l-39.928,17.521c0,0-5.922-20.771-1.999-32.551
					c3.919-11.778,17.308-33.61,33.577-20.7C475.838,326.897,478.315,357.968,478.315,357.968z"/>
				<path style="fill:#FFAC3E;" d="M446.808,343.454c9.85-1,19.353-3.479,28.589-6.846c-0.344-1.697-0.716-3.353-1.122-4.91
					c-9.023,3.332-18.29,5.801-27.945,6.785C443.122,338.811,443.6,343.782,446.808,343.454z"/>
				<path style="fill:#FFAC3E;" d="M456.569,353.661c-7.061,1.474-14.22,2.37-21.408,2.891c0.103,1.678,0.266,3.343,0.468,4.952
					c7.541-0.564,15.043-1.541,22.471-3.089c6.739-1.404,13.258-3.432,19.7-5.69c-0.162-1.493-0.364-3.218-0.612-5.084
					C470.443,350.032,463.631,352.189,456.569,353.661z"/>
			</g>
		</g>
		<g>
			<path style="fill:#FDC450;" d="M388.488,451.845h99.893c0,0-7.938-95.128-26.461-133.597c0,0-33.473-10.614-67.813,5.618
				L388.488,451.845z"/>
			<g>
				<path style="fill:#FFAC3E;" d="M469.396,338.622c0.025-0.005,0.044-0.018,0.069-0.026c-0.483-1.625-0.979-3.213-1.482-4.768
					c-32.551,8.81-73.725,2.485-74.141,2.422c-0.093-0.016-0.186-0.011-0.277-0.016l-0.222,4.992
					c2.272,0.346,16.083,2.328,33.582,2.328C440.116,343.555,455.396,342.429,469.396,338.622z"/>
				<path style="fill:#FFAC3E;" d="M475.211,361.306c-0.359-1.649-0.729-3.288-1.105-4.916c-0.16,0.036-0.318,0.092-0.477,0.162
					c-33.732,15.268-80.627,8.783-81.096,8.718c-0.082-0.013-0.162-0.008-0.244-0.013l-0.22,4.989
					c1.81,0.248,11.659,1.514,25.058,1.514C433.905,371.76,456.23,369.767,475.211,361.306z"/>
				<path style="fill:#FFAC3E;" d="M425.997,404.443c16.144,0,37.583-1.914,55.313-10.065c-0.259-1.656-0.528-3.325-0.804-5.006
					c-0.226,0.037-0.448,0.095-0.665,0.197c-35.386,16.656-88.056,7.16-88.581,7.061c-0.116-0.023-0.232-0.023-0.348-0.029
					l-0.219,5.003c2.235,0.392,14.801,2.492,31.407,2.804C423.36,404.431,424.661,404.443,425.997,404.443z"/>
				<path style="fill:#FFAC3E;" d="M477.606,423.215c-10.831,2.307-21.957,2.672-32.99,3.13c-18.45,0.765-37,0.143-54.811-4.531
					l-0.225,5.121c18.273,4.643,37.311,5.141,56.19,4.358c11.124-0.46,22.229-1.035,33.163-3.262
					c2.277-0.464,4.538-1.016,6.781-1.614c-0.195-1.622-0.399-3.307-0.616-5.037C482.626,422.065,480.128,422.679,477.606,423.215z"
					/>
			</g>
			<path style="fill:none;stroke:#FFAC3E;stroke-width:0.5;stroke-linecap:round;stroke-linejoin:round;stroke-miterlimit:10;" d="
				M488.381,451.845c0,0-7.938-95.128-26.461-133.597"/>
		</g>
		<g>
			<path style="fill:#D85E4E;" d="M423.813,294.728l-1.82,23.058c0,0,3.319,9.348,12.69,9.141c9.37-0.206,11.774-4.935,11.774-4.935
				l-3.534-24.617L423.813,294.728z"/>
			<path style="fill:#BC473B;" d="M423.813,294.728l-0.284,4.379c3.565,3.741,10.724,9.676,21.239,11.132l-1.846-12.864
				L423.813,294.728z"/>
		</g>
		<g>
			<path style="fill:#D85E4E;" d="M459.922,252.889c0,0-8.606,11.04-26.754,8.234c0,0,4.363,14.808-7.32,21.76
				c-1.126-1.516-2.915-2.514-4.948-2.514c-3.407,0-6.173,2.764-6.173,6.174c0,3.411,2.766,6.175,6.173,6.175
				c1.059,0,2.042-0.292,2.913-0.76v6.516c0,0,17.663,10.614,30.309,4.37C470.214,293.489,463.29,259.065,459.922,252.889z"/>
			<path style="fill:#BC473B;" d="M423.813,286.543c0,1.608-1.303,2.913-2.913,2.913c-1.605,0-2.908-1.305-2.908-2.913
				c0-1.607,1.303-2.911,2.908-2.911C422.51,283.632,423.813,284.936,423.813,286.543z"/>
			<g>
				<g>
					<path style="fill:#BC473B;" d="M453.616,287.013c-0.217,0-0.412-0.154-0.459-0.373c-0.051-0.254,0.111-0.502,0.364-0.555
						c1.833-0.381,3.168-1.141,3.854-2.199c0.61-0.943,0.575-1.884,0.442-2.508c-0.047-0.204-0.144-0.332-0.313-0.416
						c-0.762-0.368-2.625,0.257-3.618,0.736c-0.139,0.065-0.301,0.064-0.434-0.01c-0.133-0.076-0.221-0.209-0.238-0.36
						l-1.069-10.003c-0.027-0.257,0.16-0.489,0.417-0.515c0.261-0.021,0.486,0.157,0.514,0.415l1.002,9.366
						c0.953-0.39,2.764-0.99,3.837-0.473c0.43,0.208,0.712,0.574,0.816,1.06c0.246,1.126,0.045,2.271-0.57,3.216
						c-0.825,1.272-2.363,2.175-4.449,2.608C453.68,287.008,453.647,287.013,453.616,287.013z"/>
				</g>
				<path style="opacity:0.4;fill:#FA6060;" d="M442.105,280.988c0,2.051-1.663,3.713-3.713,3.713c-2.05,0-3.711-1.662-3.711-3.713
					c0-2.048,1.661-3.712,3.711-3.712C440.442,277.276,442.105,278.94,442.105,280.988z"/>
				<path style="opacity:0.4;fill:#FA6060;" d="M464.161,272.755c-0.596-0.403-1.311-0.642-2.084-0.642
					c-2.05,0-3.713,1.662-3.713,3.713s1.663,3.712,3.713,3.712c0.844,0,1.612-0.293,2.235-0.765
					C464.351,276.751,464.292,274.729,464.161,272.755z"/>
				<path style="fill:#FFFFFF;" d="M442.501,289.158c-0.257,0.587,0.153,8.218,6.925,7.991c5.089-0.172,6.729-8.201,5.679-8.273
					C454.052,288.802,443,288.016,442.501,289.158z"/>
				<g>
					<g>
						<path d="M438.624,273.828c-0.293-0.28,0.151-0.719,0.441-0.442c0.32,0.307,0.663,0.52,1.065,0.677
							c0.153-0.379,0.388-0.635,0.687-0.7c0.778-0.178,1.704,0.985,2.07,2.595c0.362,1.612,0.025,3.059-0.753,3.233
							c-0.781,0.176-1.709-0.984-2.071-2.596c-0.063-0.282-0.099-0.557-0.12-0.826c-0.321-0.016-0.64-0.05-0.955-0.138
							c-0.388-0.107-0.222-0.712,0.166-0.602c0.257,0.071,0.514,0.102,0.772,0.117c0.006-0.167,0.023-0.326,0.049-0.478
							C439.466,274.48,439.023,274.207,438.624,273.828z"/>
					</g>
					<path d="M461.033,269.68c0.2-0.351-0.352-0.646-0.552-0.298c-0.219,0.386-0.485,0.691-0.824,0.955
						c-0.257-0.318-0.554-0.495-0.857-0.478c-0.797,0.058-1.353,1.435-1.239,3.082c0.111,1.646,0.851,2.937,1.648,2.882
						c0.797-0.055,1.351-1.434,1.239-3.079c-0.022-0.291-0.067-0.563-0.122-0.826c0.303-0.109,0.598-0.232,0.876-0.407
						c0.341-0.215,0.01-0.745-0.333-0.53c-0.226,0.143-0.463,0.248-0.707,0.336c-0.055-0.156-0.116-0.305-0.181-0.443
						C460.415,270.543,460.758,270.157,461.033,269.68z"/>
				</g>
			</g>
		</g>
		<g>
			<path style="fill:#D85E4E;" d="M405.849,319.284c9.791,3.911-10.764,66.906,9.474,132.561h-26.834
				c0,0-16.574-34.813-17.607-65.654C369.849,355.35,390.587,313.19,405.849,319.284z"/>
			<g>
				<path style="fill:#FDC450;" d="M408.915,371.955c0,0-20.427,5.791-41.207-8.616c0,0,10.64-53.101,40.957-44.885
					C408.665,318.454,415.505,331.793,408.915,371.955z"/>
				<path style="fill:#FFAC3E;" d="M386.916,324.097c-1.303,1.186-2.532,2.49-3.686,3.89c8.905,3.864,18.572,5.659,28.353,6.127
					c-0.111-1.852-0.266-3.522-0.444-5.014C402.81,328.643,394.597,327.156,386.916,324.097z"/>
				<path style="fill:#FFAC3E;" d="M371.671,349.65c12.443,4.817,25.864,6.68,39.302,6.662c0.166-1.733,0.308-3.4,0.417-4.992
					c-12.977,0.049-25.91-1.686-37.917-6.338C372.812,346.58,372.212,348.146,371.671,349.65z"/>
			</g>
		</g>
	</g>
	<g>
		<path d="M733.899,453.345H14.237c-0.829,0-1.5-0.672-1.5-1.5c0-0.828,0.671-1.5,1.5-1.5h719.663c0.828,0,1.5,0.672,1.5,1.5
			C735.399,452.673,734.728,453.345,733.899,453.345z"/>
	</g>
	<path style="opacity:0.4;fill:#FFFFFF;" d="M161.546,81.537c-42.617,0-77.165,21.991-77.165,49.117
		c0,23.681,26.331,43.444,61.374,48.083l-10.997,38.114l27.957-37.1c42.075-0.4,75.995-22.221,75.995-49.098
		C238.71,103.528,204.163,81.537,161.546,81.537z"/>
	<path style="opacity:0.4;fill:#FFFFFF;" d="M218.35,128.894c-31.544,0-57.115,17.999-57.115,40.203
		c0,13.587,9.586,25.592,24.248,32.869l21.412,28.415l-6.684-23.164c5.701,1.343,11.796,2.083,18.139,2.083
		c31.544,0,57.116-17.999,57.116-40.203C275.466,146.894,249.895,128.894,218.35,128.894z"/>
	<path style="opacity:0.4;fill:#FFFFFF;" d="M527.393,120.307h-78.023c-12.238,0-22.159,9.92-22.159,22.159v52.161
		c0,12.239,9.921,22.16,22.159,22.16h41.507l-10.416,36.101l27.205-36.101h19.727c12.237,0,22.159-9.921,22.159-22.16v-52.161
		C549.552,130.227,539.63,120.307,527.393,120.307z"/>
	<path style="opacity:0.4;fill:#FFFFFF;" d="M597.457,149.194h-42.178c-10.285,0-18.623,8.338-18.623,18.624v21.605
		c0,10.286,8.338,18.624,18.623,18.624h25.02l25.399,33.706l-9.727-33.706h1.485c10.286,0,18.624-8.338,18.624-18.624v-21.605
		C616.081,157.533,607.743,149.194,597.457,149.194z"/>
</g>
</svg>
